<!DOCTYPE svg PUBLIC "-//W3C//DTD SVG 20010904//EN" "http://www.w3.org/TR/2001/REC-SVG-20010904/DTD/svg10.dtd">
<svg version="1.0" xmlns="http://www.w3.org/2000/svg" width="512px" height="512px" viewBox="0 0 5120 5120" preserveAspectRatio="xMidYMid meet">
<g id="layer1" fill="#9c0000" stroke="none">
 <path d="M630 4548 l0 -294 833 -619 834 -618 -754 -989 -753 -988 0 -163 0 -163 68 -67 68 -67 1763 0 1764 0 -59 64 -59 64 -1482 1 -1483 1 0 100 0 100 1537 0 1537 0 -64 65 -64 65 -1463 2 -1464 3 1386 1818 c762 999 1385 1820 1385 1822 0 3 -132 5 -294 5 l-294 0 -494 -649 -494 -648 -935 694 c-514 382 -953 708 -976 724 l-43 30 0 -293z"/>
 <path d="M3353 3370 c-144 -190 -532 -700 -862 -1135 l-600 -790 -1 -132 0 -133 1057 0 1058 0 -135 135 -135 135 -743 2 -743 3 686 903 685 904 -2 226 -3 227 -262 -345z"/>
 </g>

</svg>